# xmcd
#
# Track frame offsets:
#	150
#	22872
#	43818
#	65117
#	81891
#	103813
#	118355
#	140840
#	156974
#	175419
#	186698
#	199195
#
# Disc length: 2951 seconds
#
# Revision: 1
# Processed by: cddbd v1.4PL0 Copyright (c) Steve Scherf et al.
# Submitted via: CDmax 1.8
#
DISCID=bd0b850c
DTITLE=Rolf Wikström - Allting förändras
DYEAR=2001
DGENRE=Blues
TTITLE0=Allting förändras
TTITLE1=Sofias sång
TTITLE2=Helgdagskväll i timmerkoja
TTITLE3=Haderian hadera
TTITLE4=Vad fel det blev
TTITLE5=Jag gör allting för dej
TTITLE6=Till min syster
TTITLE7=Trötta ögon
TTITLE8=Min älskling
TTITLE9=Sommarn är slut nu
TTITLE10=Om du går neråt staden
TTITLE11=Alltför många gånger
EXTD=
EXTT0=
EXTT1=
EXTT2=
EXTT3=
EXTT4=
EXTT5=
EXTT6=
EXTT7=
EXTT8=
EXTT9=
EXTT10=
EXTT11=
PLAYORDER=
